<?xml version="1.0" encoding="UTF-8"?>
<!DOCTYPE svg PUBLIC "-//W3C//DTD SVG 1.1//EN" "http://www.w3.org/Graphics/SVG/1.1/DTD/svg11.dtd">
<svg version="1.1" id="Layer_1" xmlns="http://www.w3.org/2000/svg" xmlns:xlink="http://www.w3.org/1999/xlink" x="0px" y="0px" width="32px" height="32px" viewBox="0 0 32 32" enable-background="new 0 0 32 32" xml:space="preserve">
  <g id="main">
    <g id="icon">
      <path d="M17.92,0.06895L17.37,0.2633L17.08,0.3658L16.82,0.5566L0.3713,17.06L0.1375,17.42L0.05938,17.82L0.1375,18.22L0.3713,18.57L11.48,29.72L11.83,29.95L12.23,30.03L12.63,29.95L12.98,29.72L18,24.68L18,22L18,19L18.27,18L18.58,17.59L18.99,17.28L19.47,17.07L20,17L25.65,17L29.43,13.21L29.59,13.01L29.69,12.79L29.92,12.19L30,11.53L30,2.651L29.95,2.116L29.79,1.619L29.55,1.169L29.23,0.7764L28.84,0.4527L28.39,0.2082L27.89,0.05391L27.36,0L18.51,0zM25.33,2.903L25.77,3.039L26.16,3.253L26.51,3.536L26.79,3.88L27.01,4.274L27.14,4.71L27.19,5.178L27.14,5.646L27.01,6.082L26.79,6.477L26.51,6.82L26.16,7.104L25.77,7.318L25.33,7.453L24.86,7.5L24.4,7.453L23.96,7.318L23.56,7.104L23.22,6.82L22.94,6.477L22.72,6.082L22.59,5.646L22.54,5.178L22.59,4.71L22.72,4.274L22.94,3.88L23.22,3.536L23.56,3.253L23.96,3.039L24.4,2.903L24.86,2.856zz" fill-rule="evenodd" fill="#217346"/>
    </g>
    <g id="overlay">
      <path d="M31,31.5H20c-0.2761,0,-0.5,-0.2239,-0.5,-1.5V19.5h12v10.5C31.5,31.2761,31.2761,31.5,31,31.5z" fill="#FFFFFF" stroke="#6D6E71" stroke-width="1" stroke-miterlimit="10"/>
      <path d="M32,21H19v-2c0,-0.5523,0.4477,-1,1,-1h11c0.5523,0,1,0.4477,1,1V21z" fill="#217346"/>
      <path d="M22,23h2M22,25h2M22,27h2M22,29h2" fill="none" stroke="#797979" stroke-width="1" stroke-linecap="round" stroke-miterlimit="10"/>
      <path d="M26,23h3.1M26,25h3.1M26,27h3.1M26,29h3.1" fill="none" stroke="#B4B4B5" stroke-width="1" stroke-linecap="round" stroke-miterlimit="10"/>
    </g>
  </g>
</svg>